<svg xmlns="http://www.w3.org/2000/svg" viewBox="0 0 200 76.08"><defs><style>.cls-1{fill:#fa0;}.cls-2{fill:#262523;}</style></defs><g id="Layer_2" data-name="Layer 2"><g id="Layer_1-2" data-name="Layer 1"><rect class="cls-1" x="38.21" width="123.52" height="76.08"/><path class="cls-2" d="M78.77,53.92a6.19,6.19,0,0,0,2-4.42,6.31,6.31,0,0,0-6.34-6.25H67.54V60h4.29v-4.5H73a2.47,2.47,0,0,1,2.16,1.29L77,60h5.31ZM74,51.21h-2.2V47.33H74a2,2,0,0,1,2,1.91A1.94,1.94,0,0,1,74,51.21Z"/><path class="cls-2" d="M103.27,43.45h4.49V55.7h5.92V60H104.8a1.53,1.53,0,0,1-1.53-1.54Z"/><path class="cls-2" d="M134.53,43.45h0a1.27,1.27,0,0,1,.88.36l7.46,7.44v-7.8h2.76A1.54,1.54,0,0,1,147.16,45V58.73A1.26,1.26,0,0,1,145.91,60h0a1.26,1.26,0,0,1-.89-.37l-7.44-7.46V60H134.8a1.53,1.53,0,0,1-1.52-1.53V44.7A1.25,1.25,0,0,1,134.53,43.45Z"/><path class="cls-2" d="M96.33,43.45h4.28V60H96.33Z"/><path class="cls-2" d="M64,51.35a4.88,4.88,0,0,0-2.3-7.61A7.72,7.72,0,0,0,59,43.45h-6.2V60h7.94a5.06,5.06,0,0,0,4.8-3.32A4.82,4.82,0,0,0,64,51.35Zm-6.87-4.23h2a1.49,1.49,0,0,1,1.49,1.4A1.42,1.42,0,0,1,59.22,50H57.13ZM60,56.52H57.13V53.66H60a1.44,1.44,0,0,1,1.39,1.73A1.48,1.48,0,0,1,60,56.52Z"/><path class="cls-2" d="M83.26,43.45H93.67v3.67H87.75v2.66h5.31v3.67H87.75v3.07h5.92V60H83.26Z"/><path class="cls-2" d="M124.88,44.36a1.57,1.57,0,0,0-1-.87,1.53,1.53,0,0,0-1.81.83L114.72,60h4.35l.37-.71a1.23,1.23,0,0,1,1.16-.72h5.77a1.24,1.24,0,0,1,1.17.72l.36.71h4.37Zm-3.06,9.71,1.67-3.6,1.66,3.6Z"/><polygon class="cls-2" points="96.73 24.26 93.26 24.26 93.26 20.79 93.26 20.79 90.2 20.79 90.2 24.26 86.53 24.26 86.53 27.32 90.2 27.32 90.2 30.79 93.26 30.79 93.26 27.32 96.73 27.32 96.73 24.26"/><path class="cls-2" d="M107.45,21.11a1.59,1.59,0,1,0,1.77,0A1.59,1.59,0,0,0,107.45,21.11Z"/><path class="cls-2" d="M110.88,24.53a1.59,1.59,0,0,0,0,2.64,1.57,1.57,0,0,0,1.76,0,1.59,1.59,0,0,0,0-2.64A1.61,1.61,0,0,0,110.88,24.53Z"/><path class="cls-2" d="M107.45,28a1.59,1.59,0,1,0,1.77,0A1.6,1.6,0,0,0,107.45,28Z"/><path class="cls-2" d="M104,24.53a1.59,1.59,0,0,0,0,2.64,1.57,1.57,0,0,0,1.76,0,1.59,1.59,0,0,0,0-2.64A1.61,1.61,0,0,0,104,24.53Z"/><polygon class="cls-2" points="83.06 32.83 83.06 18.95 85.75 18.95 88.45 16.09 83.06 16.09 78.77 16.09 78.77 35.69 83.06 35.69 88.45 35.69 85.75 32.83 83.06 32.83"/><polygon class="cls-2" points="116.94 32.83 116.94 18.95 114.25 18.95 111.55 16.09 116.94 16.09 121.23 16.09 121.23 35.69 116.94 35.69 111.55 35.69 114.25 32.83 116.94 32.83"/><polygon class="cls-1" points="40.86 0 0 0 38.21 76.08 40.86 76.08 40.86 0"/><polygon class="cls-1" points="159.14 0 200 0 161.79 76.08 159.14 76.08 159.14 0"/></g></g></svg>