<svg id="Layer_1" data-name="Layer 1" xmlns="http://www.w3.org/2000/svg" viewBox="0 0 553.26 197.04"><defs><style>.cls-1{fill:#fa0;}.cls-2{fill:#262523;}</style></defs><polygon class="cls-1" points="0 0 106.5 197.04 446.75 197.04 553.26 0 0 0"/><rect class="cls-1" x="106.5" width="340.25" height="197.04"/><path class="cls-2" d="M223.92,142.54a17,17,0,0,0,5.56-12.25c.15-9.54-8.13-17.34-17.77-17.34H192.44v46.43h12V146.92h3.4a7,7,0,0,1,6.06,3.57l5,8.88h14.89l-9.94-16.83ZM210.63,135h-6.17V124.27h5.95a5.57,5.57,0,0,1,5.68,5.31,5.38,5.38,0,0,1-5.47,5.45Z" transform="translate(0 0)"/><path class="cls-2" d="M292.59,113.52h12.59v34h16.6v11.89H296.9a4.28,4.28,0,0,1-4.3-4.26v-41.6Z" transform="translate(0 0)"/><path class="cls-2" d="M380.21,113.52h0a3.5,3.5,0,0,1,2.47,1l20.92,20.64V113.52h7.71a4.28,4.28,0,0,1,4.3,4.26V155.9a3.5,3.5,0,0,1-3.52,3.48h0a3.56,3.56,0,0,1-2.49-1l-20.86-20.68v21.71H381a4.26,4.26,0,0,1-4.28-4.23V117a3.48,3.48,0,0,1,3.5-3.46Z" transform="translate(0 0)"/><path class="cls-2" d="M273.13,113.52h12v45.86h-12Z" transform="translate(0 0)"/><path class="cls-2" d="M182.52,135.43a13.8,13.8,0,0,0,1.29-14.58,14,14,0,0,0-7.74-6.53,22,22,0,0,0-7.45-.8H151.24v45.86H173.5A14.17,14.17,0,0,0,187,150.19C189,144.46,186.68,139,182.52,135.43Zm-19.26-11.72h5.67a4.18,4.18,0,0,1,4.19,3.88,4,4,0,0,1-4,4h-5.85Zm7.93,26h-7.93v-7.93h8.13a4,4,0,0,1,3.91,4.81,4.16,4.16,0,0,1-4.12,3.12Z" transform="translate(0 0)"/><path class="cls-2" d="M236.51,113.52h29.18v10.19h-16.6v7.36H264v10.19H249.09v8.49h16.6v9.62H236.51V113.51Z" transform="translate(0 0)"/><path class="cls-2" d="M353.17,116.05a4.42,4.42,0,0,0-2.81-2.43,4.33,4.33,0,0,0-5.06,2.3l-20.61,43.46h12.2l1-1.95a3.46,3.46,0,0,1,3.27-2h16.17a3.48,3.48,0,0,1,3.27,2l1,1.95h12.25ZM344.59,143l4.67-10,4.68,10Z" transform="translate(0 0)"/><polygon class="cls-2" points="274.28 60.3 264.55 60.3 264.55 50.67 264.55 50.67 255.97 50.67 255.97 60.3 245.67 60.3 245.67 68.79 255.97 68.79 255.97 78.41 264.55 78.41 264.55 68.79 274.28 68.79 274.28 60.3"/><path class="cls-2" d="M304.33,51.55a4.37,4.37,0,0,0,0,7.31,4.46,4.46,0,0,0,4.93,0,4.37,4.37,0,0,0,0-7.31A4.46,4.46,0,0,0,304.33,51.55Z" transform="translate(0 0)"/><path class="cls-2" d="M313.94,61.06a4.37,4.37,0,0,0,0,7.31,4.46,4.46,0,0,0,4.93,0,4.37,4.37,0,0,0,0-7.31A4.46,4.46,0,0,0,313.94,61.06Z" transform="translate(0 0)"/><path class="cls-2" d="M304.33,70.57a4.37,4.37,0,0,0,0,7.31,4.46,4.46,0,0,0,4.93,0,4.37,4.37,0,0,0,0-7.31A4.46,4.46,0,0,0,304.33,70.57Z" transform="translate(0 0)"/><path class="cls-2" d="M294.72,61.06a4.37,4.37,0,0,0,0,7.31,4.46,4.46,0,0,0,4.93,0,4.37,4.37,0,0,0,0-7.31A4.46,4.46,0,0,0,294.72,61.06Z" transform="translate(0 0)"/><polygon class="cls-2" points="235.94 84.07 235.94 45.58 243.51 45.58 251.07 37.65 235.94 37.65 223.92 37.65 223.92 92 235.94 92 251.07 92 243.51 84.07 235.94 84.07"/><polygon class="cls-2" points="330.93 84.07 330.93 45.58 323.36 45.58 315.8 37.65 330.93 37.65 342.95 37.65 342.95 92 330.93 92 315.8 92 323.36 84.07 330.93 84.07"/></svg>